<?xml version="1.0" standalone="no"?>
<!DOCTYPE svg PUBLIC "-//W3C//DTD SVG 20010904//EN"
 "http://www.w3.org/TR/2001/REC-SVG-20010904/DTD/svg10.dtd">
<svg version="1.0" xmlns="http://www.w3.org/2000/svg"
 width="800.000000pt" height="600.000000pt" viewBox="0 0 800.000000 600.000000"
 preserveAspectRatio="xMidYMid meet">

<g transform="translate(0.000000,600.000000) scale(0.100000,-0.100000)"
fill="#000000" stroke="none">
<path d="M3090 4067 c0 -9 37 -25 98 -43 l97 -29 -96 -6 c-53 -4 -245 -10
-428 -14 -263 -6 -331 -10 -331 -21 0 -7 8 -15 18 -18 20 -6 209 -46 217 -46
2 0 -23 -29 -58 -64 -34 -35 -105 -118 -157 -185 l-95 -121 -45 5 c-107 11
-490 27 -506 21 -29 -11 -3 -24 71 -35 39 -6 84 -13 102 -16 l32 -6 -38 -34
c-21 -20 -44 -49 -51 -66 l-13 -30 -80 7 c-115 10 -99 -12 41 -56 92 -28 112
-38 112 -53 0 -18 -5 -19 -57 -13 -134 14 -374 28 -380 22 -14 -14 17 -25 142
-51 72 -14 137 -28 146 -31 14 -4 14 -12 3 -72 -38 -204 -20 -436 39 -495 18
-18 23 -36 25 -94 l4 -72 -111 6 c-105 6 -111 5 -111 -13 0 -14 42 -44 157
-112 l156 -93 146 3 145 3 22 38 c11 21 27 63 34 93 7 30 17 57 21 60 5 2 117
-27 251 -67 134 -39 286 -83 338 -99 80 -23 97 -32 108 -54 8 -15 11 -30 8
-33 -3 -3 -122 7 -265 23 -228 25 -287 27 -270 9 3 -2 175 -63 382 -134 l377
-129 223 -3 c251 -4 269 0 342 70 40 39 41 39 140 45 55 3 375 7 712 8 l612 3
31 -43 c21 -30 49 -52 88 -70 52 -25 67 -27 182 -27 122 0 127 1 194 34 49 24
76 45 98 76 31 43 31 44 107 50 132 11 325 35 363 46 48 12 68 33 68 69 0 41
-23 45 -148 22 -152 -29 -195 -33 -211 -23 -9 6 31 19 123 41 145 35 191 56
206 94 11 30 30 198 30 270 0 65 -16 86 -67 86 -37 0 -160 -29 -233 -55 -52
-19 -859 -75 -1168 -82 -179 -4 -183 -3 -215 20 -17 13 -40 27 -51 31 -32 11
-455 57 -586 63 -185 9 -211 -10 -232 -172 -22 -176 11 -252 122 -273 78 -16
468 -33 512 -23 69 16 129 52 166 102 44 57 82 67 82 20 0 -21 -13 -40 -53
-78 -71 -67 -104 -83 -174 -83 -70 0 -643 39 -660 45 -7 2 -22 36 -34 76 -19
61 -21 88 -17 184 8 173 47 233 160 250 104 16 81 61 -51 101 -119 36 -183 69
-242 126 -77 74 -114 179 -91 261 l10 37 -51 15 c-60 17 -318 65 -349 65 -12
0 -18 3 -14 7 3 4 363 12 799 19 728 10 823 10 1181 -7 215 -10 392 -16 395
-14 14 15 -42 26 -329 65 -173 23 -326 44 -340 47 -17 3 -50 37 -100 101 -104
133 -312 341 -377 375 -29 15 -84 35 -122 43 -63 13 -1125 114 -1200 114 -19
0 -31 -5 -31 -13z m860 -187 c265 -15 372 -33 440 -73 75 -44 359 -326 339
-337 -15 -8 -1508 -35 -1515 -27 -9 9 -54 270 -54 313 0 34 5 47 29 67 44 37
106 47 337 56 115 4 216 9 224 9 8 1 98 -3 200 -8z m-1005 -86 c38 -25 45 -45
66 -183 28 -187 36 -170 -73 -155 -51 7 -143 19 -203 28 -61 8 -123 20 -138
27 -57 26 -41 94 44 184 108 114 224 152 304 99z m-895 -860 c0 -3 -7 -12 -15
-20 -30 -30 -40 -97 -40 -269 0 -173 9 -229 43 -267 14 -16 14 -18 -1 -18 -23
0 -63 53 -83 112 -26 73 -26 269 -1 350 18 60 59 118 83 118 8 0 14 -3 14 -6z
m1308 -131 c2 -7 -3 -13 -12 -13 -23 0 -85 -58 -107 -101 -48 -95 -63 -269
-33 -400 19 -84 65 -157 116 -184 47 -25 48 -35 3 -35 -49 0 -85 21 -134 76
-123 140 -129 425 -13 579 56 73 165 121 180 78z"/>
<path d="M3950 3287 c0 -7 48 -33 108 -60 202 -89 304 -157 428 -283 205 -209
231 -213 1079 -168 149 7 304 14 346 14 63 0 79 3 94 20 17 19 17 23 3 53 -9
17 -46 66 -83 107 -76 85 -141 168 -174 223 -23 37 -41 48 -41 25 0 -22 93
-171 168 -269 l73 -94 -313 -8 c-172 -4 -441 -9 -598 -10 l-285 -2 -57 27
c-38 17 -91 58 -151 116 -51 49 -115 103 -141 121 -60 42 -231 124 -327 157
-120 42 -129 44 -129 31z"/>
<path d="M5883 3253 c-7 -2 -13 -13 -13 -24 0 -48 130 -261 193 -316 45 -40
94 -48 162 -28 61 17 85 37 85 68 0 30 -48 110 -113 188 -74 89 -134 119 -231
118 -39 0 -77 -3 -83 -6z"/>
<path d="M3674 3224 c-22 -21 -25 -31 -19 -62 24 -127 187 -272 349 -311 60
-15 258 -16 305 -2 94 28 106 73 39 140 -29 29 -87 64 -192 115 -296 144 -427
176 -482 120z"/>
</g>
</svg>
